<?xml version="1.0" encoding="utf-8"?>
<!-- Generator: Adobe Illustrator 24.3.0, SVG Export Plug-In . SVG Version: 6.00 Build 0)  -->
<svg version="1.1" id="Layer_1" xmlns="http://www.w3.org/2000/svg" xmlns:xlink="http://www.w3.org/1999/xlink" x="0px" y="0px"
	 width="75px" height="99.3px" viewBox="0 0 75 99.3" style="enable-background:new 0 0 75 99.3;" xml:space="preserve">
<style type="text/css">
	.st0{fill:#FFFFFF;}
</style>
<g>
	<path class="st0" d="M57.1,47.2c0.4-0.2,1.9,0.5,2.7,1c0.8,0.4,1.4-0.3,0.7-0.8c-1.4-0.8-3-1.3-4.6-1.2c-2.7-2.1-5.5-3.3-7.8-4.4
		c-2.2-1,5.3-1.4,8.1-0.3c0.7,0.2,1.2-0.5,0.5-0.8c-3.5-1.3-7.6-0.7-11.3-0.1c-2.8-0.4-4.4-0.4-6.6-0.7v-2.5c0-0.4,0-0.9,0-1.4
		l8.8-3.3l9.3,1l0.3-0.5L49.4,32l12.3-6.9l-0.3-0.9l-8.3,4.2l6.4-7.5l-0.6-0.2l-9.4,9.6L38.8,34c0-2.4-0.1-4.2-0.1-6.6l2.8-1.7
		l6.8-1.5l0-0.6l-4.5,0.7l6.3-3.8l8.7-2.2l-0.1-0.4l-6.7,1l5.9-4l-0.3-0.4l-11.7,7.3l0.3-0.2l8.3-9.4l-0.5-0.2L43.8,22.5l-5,2.6
		c0-2.8,0-4.7-0.1-7.5l6.2-4.3l10.6-2.8L55.2,10l-8.4,1.9l6.1-4.2l-0.3-0.4L46,11.2l1.7-2.9l0.1,0l0,0l2.4-4.1L50,3.9l-2.4,3.4
		L47.1,3l-0.3,0.1l0.1,4.9l-3.6,4.9l-4.6,3c0-2.6,0-4.7-0.1-7.4l4.5-3.8l2.4-2l-0.4-0.4l-2.5,1.8L42,1l-0.3,0.2l-0.1,3.4l-3.1,2.5V3
		V0.2c0,0-0.7-0.3-0.7-0.2c0,2,0,5.1-0.1,7.1l-3.2-2.7l0-3.4l-0.2-0.2L33.7,4l-2.5-1.9l-0.4,0.4l2.4,2l4.6,4
		c-0.1,2.6-0.2,4.8-0.2,7.3l-4.7-3.1l-3.6-5l0.2-4.9l-0.3-0.1L28.6,7l-2.3-3.4l-0.2,0.3L28.5,8l0,0l0.1,0l1.7,2.9l-6.5-4.1l-0.3,0.4
		l6,4.3l-8.3-2.1L20.8,10l10.5,3l6.2,4.5c-0.1,3.1-0.2,4.4-0.3,7.5l-5.1-2.8L22,11.5l-0.5,0.2l8.1,9.6l0.2,0.2l-11.5-7.6L18,14.3
		l5.9,4.1l-6.7-1.1l-0.1,0.4l8.7,2.4l6.3,4l-4.4-0.8v0.6l6.9,1.8l2.6,1.6c0,0.5,0,2.8,0,3.8v2.9L26,29.7l-8.9-9.6l-0.5,0.1l6.2,7.7
		l-8.3-4.4l-0.3,0.9l12.2,7.1l-8,1.2l0.3,0.5l9.3-0.9l9.1,3.7c0,0.6,0.1,1.6,0.1,2.2c0,0.6,0,1.2,0,1.7c-2.2,0.3-3.7,0.3-6.6,0.7
		c-3.8-0.6-7.8-1.2-11.4,0.1c-0.8,0.3-0.2,1.1,0.5,0.8c2.9-1.1,10.3-0.7,8.1,0.3c-2.2,1-5.1,2.3-7.8,4.4c-1.6-0.1-3.3,0.4-4.7,1.2
		c-0.7,0.4-0.1,1.2,0.7,0.8c0.8-0.5,2.3-1.3,2.7-1c0.4,0.2-3.8,3.4-4.1,4.1c-0.3,0.7,0.5,1,0.9,0.5c2.4-3,7.6-7,7.7-6.5
		c0.2,0.5-1,2.9-1.3,4.4c-0.2,0.9-4.2,2.2-6,3.5c-0.7,0.4-0.1,1.1,0.8,0.6c1.5-0.9,4.4-2.5,4.8-2.4c0.3,0.1-0.7,1.6-1.2,2.3
		c-0.9,1.2-1.8,2.4-2.7,3.5c-0.7,0.7,0.2,1.4,0.7,0.7c1.6-2.3,3.7-4.1,4.5-6.9c0.4-1.6,1.1-3.5,1.7-5.1c0.2-0.6,0.5-1.1,0.7-1.6
		c1.8-1,3.3-1.6,5.3-2.3c2.5-0.9,6.2-0.8,6.6-0.6V46c-3-0.1-5.1,0.8-5.8,0.8c-0.9-0.1-2.7-0.4-4,0c-0.6,0.2-0.5,1,0.2,0.8
		c0.8-0.3,2.5-0.3,2.5,0c0.1,0.2-2.6,2-3.6,3.3c-0.4,0.6,0.3,1.3,0.8,0.6c2.1-3.2,9.7-5.4,9.8-3.9v3.6c0,0.8-1.8,0.5-6.6,2.5
		c-0.1,0.1-2.9,1.4-3,1.4c-3.4,0.6-6.2,1.5-8.7,3.9c-0.5,0.5,0.2,1.5,1,0.6c1.7-2,6.1-3.5,6.4-3.1c0.2,0.2-3.8,3.2-5,5.5
		c-0.4,0.7,0.5,1.1,0.9,0.4c0.8-1.3,2.2-3.2,2.5-3.1c0.3,0.1-0.3,2.4-0.9,4.3c-0.3,0.8,0.6,1.3,0.9,0.6c0.8-2.1,1.1-5.5,1.1-5.6
		c0-0.1,0.3-0.4,0.5-0.6c3.2-3.7,10.9-5.5,10.9-4.7c0,0.9,0.1,2.9,0.1,5.1c-0.2,0.4-1.5,1.1-2,1.2c-1.8,0.2-2.1,0.4-3,0.7
		c-2.4,0.6-4.2,2.9-5.8,4.6c-0.5,0.6,0.1,1.2,0.7,0.7c1.4-1.6,3.5-3.7,4.6-4.1c1.1-0.4,2.1-1,2.2-0.3c0,0.4-3.5,3.7-4.7,6.3
		c-0.3,0.6,0.7,1,0.9,0.5c1.6-3.1,7-8.6,7.2-7.4c0,2.3,0.1,3.9,0.1,6.2c-1.6,0.8-2.5,1.9-3.4,3.3c-0.5,0.7,0.5,1,0.9,0.4
		c0.7-1.1,1.3-1.6,2.5-2.3c0,1.1,0.1,1.9,0.2,2.5c0.2,0.7,0.7,0.4,0.7,0.1c0,0,0.1-1.4,0.1-2.5c1.2,0.7,1.8,1.2,2.5,2.3
		c0.4,0.6,1.3,0.3,0.9-0.4c-0.9-1.4-1.7-2.5-3.4-3.3c0-2.3,0.1-3.9,0.1-6.2c0.2-1.1,5.6,4.3,7.2,7.4c0.2,0.5,1.2,0.1,0.9-0.5
		c-1.1-2.7-4.6-6-4.7-6.3c0.1-0.7,1-0.1,2.2,0.3c1.1,0.4,3.2,2.5,4.6,4.1c0.5,0.6,1.2-0.1,0.7-0.7c-1.6-1.8-3.4-4-5.8-4.6
		c-0.9-0.2-1.3-0.4-3-0.7c-0.5-0.1-1.8-0.7-2-1.2c0-2.2,0.1-4.3,0.1-5.1c0-0.8,7.7,1,10.9,4.7c0.2,0.2,0.4,0.4,0.5,0.6
		c0,0.1,0.3,3.6,1.1,5.6c0.3,0.7,1.2,0.2,0.9-0.6c-0.7-1.8-1.2-4.2-0.9-4.3c0.3-0.1,1.7,1.8,2.5,3.1c0.4,0.7,1.3,0.3,0.9-0.4
		c-1.2-2.3-5.2-5.3-5-5.5c0.2-0.4,4.7,1.1,6.4,3.1c0.8,0.9,1.5-0.1,1-0.6c-2.5-2.4-5.3-3.3-8.7-3.9c-0.1,0-2.9-1.4-3-1.4
		c-4.8-2-6.7-1.7-6.6-2.5v-3.6c0.1-1.5,7.7,0.7,9.8,3.9c0.4,0.7,1.2,0,0.7-0.6c-0.9-1.4-3.6-3.1-3.6-3.3c0.1-0.2,1.7-0.2,2.5,0
		c0.7,0.2,0.8-0.6,0.2-0.8c-1.3-0.4-3.1-0.1-4,0c-0.7,0-2.8-0.9-5.8-0.8v-4.6c0.3-0.2,4-0.3,6.6,0.6c2,0.7,3.4,1.3,5.3,2.3
		c0.3,0.5,0.5,1.1,0.7,1.6c0.6,1.6,1.3,3.4,1.7,5.1c0.8,2.8,2.9,4.6,4.4,6.9c0.4,0.7,1.3,0.1,0.7-0.7c-1-1.1-1.8-2.3-2.7-3.5
		c-0.6-0.8-1.5-2.2-1.2-2.3c0.3-0.1,3.2,1.5,4.8,2.4c0.9,0.5,1.5-0.2,0.8-0.6c-1.8-1.2-5.8-2.6-6-3.5c-0.4-1.5-1.5-3.9-1.3-4.4
		c0.1-0.5,5.3,3.5,7.7,6.5c0.4,0.5,1.2,0.1,0.9-0.5C60.9,50.6,56.7,47.4,57.1,47.2"/>
	<g>
		<path class="st0" d="M2.3,83.3v2.9h2.9v0.5H2.3v2.1c0,0.2,0,0.3,0.1,0.4c0.1,0.1,0.1,0.2,0.2,0.2c0.1,0.1,0.2,0.1,0.3,0.1
			c0.1,0,0.2,0,0.4,0h0.4v0.4H0v-0.4h0.2c0.1,0,0.3,0,0.4,0c0.1,0,0.2,0,0.3-0.1c0.1,0,0.2-0.1,0.2-0.2s0.1-0.2,0.1-0.4v-4.9
			c0-0.1,0-0.3-0.1-0.4c-0.1-0.1-0.1-0.2-0.2-0.2c-0.1,0-0.2-0.1-0.3-0.1c-0.1,0-0.2,0-0.4,0H0v-0.4h6L6,84.5H5.4l-0.1-0.4
			c0-0.1,0-0.2-0.1-0.3c0-0.1-0.1-0.2-0.2-0.3s-0.2-0.1-0.3-0.2c-0.1,0-0.3-0.1-0.5-0.1H2.3z"/>
		<path class="st0" d="M12,90c-0.5,0-0.9,0-1.3-0.1c-0.4-0.1-0.7-0.2-0.9-0.4c-0.3-0.2-0.5-0.4-0.6-0.7c-0.1-0.3-0.2-0.6-0.2-1v-3.9
			c0-0.1,0-0.3-0.1-0.4c-0.1-0.1-0.1-0.2-0.2-0.2c-0.1,0-0.2-0.1-0.3-0.1c-0.1,0-0.2,0-0.4,0H7.9v-0.4h3.4v0.4h-0.2
			c-0.1,0-0.3,0-0.4,0c-0.1,0-0.2,0.1-0.3,0.1c-0.1,0.1-0.2,0.1-0.2,0.2c-0.1,0.1-0.1,0.2-0.1,0.4v3.9c0,0.3,0,0.5,0.1,0.7
			c0.1,0.2,0.2,0.4,0.4,0.5c0.2,0.1,0.4,0.2,0.6,0.3c0.2,0.1,0.5,0.1,0.8,0.1c0.3,0,0.6,0,0.9-0.1s0.5-0.2,0.6-0.3
			c0.2-0.1,0.3-0.3,0.4-0.5c0.1-0.2,0.1-0.4,0.1-0.6v-4c0-0.1,0-0.3-0.1-0.4c-0.1-0.1-0.1-0.2-0.2-0.2c-0.1,0-0.2-0.1-0.3-0.1
			c-0.1,0-0.2,0-0.4,0H13v-0.4h3v0.4h-0.2c-0.1,0-0.3,0-0.4,0c-0.1,0-0.2,0.1-0.3,0.1c-0.1,0.1-0.2,0.1-0.2,0.2
			c-0.1,0.1-0.1,0.2-0.1,0.4v4c0,0.3-0.1,0.6-0.2,0.9c-0.1,0.3-0.3,0.5-0.6,0.7c-0.2,0.2-0.5,0.3-0.9,0.4C12.9,90,12.5,90,12,90z"/>
		<path class="st0" d="M20.3,90c-0.4,0-0.7,0-1-0.1c-0.3-0.1-0.5-0.2-0.7-0.3c-0.2-0.1-0.3-0.3-0.4-0.4s-0.2-0.4-0.2-0.6
			c0-0.2,0.1-0.4,0.2-0.5c0.1-0.1,0.4-0.2,0.6-0.2c0,0.2,0,0.4,0.1,0.6c0.1,0.2,0.2,0.4,0.3,0.5c0.1,0.1,0.3,0.3,0.5,0.4
			c0.2,0.1,0.4,0.1,0.7,0.1c0.5,0,0.9-0.1,1.2-0.3c0.3-0.2,0.4-0.5,0.4-0.9c0-0.2,0-0.3-0.1-0.5c-0.1-0.1-0.2-0.3-0.3-0.4
			c-0.1-0.1-0.3-0.2-0.6-0.3c-0.2-0.1-0.5-0.2-0.9-0.3c-0.4-0.1-0.7-0.3-1-0.4c-0.3-0.1-0.5-0.3-0.7-0.5c-0.2-0.2-0.3-0.4-0.4-0.6
			c-0.1-0.2-0.1-0.5-0.1-0.7c0-0.3,0.1-0.5,0.2-0.8c0.1-0.2,0.3-0.4,0.5-0.6c0.2-0.2,0.5-0.3,0.8-0.4c0.3-0.1,0.7-0.1,1-0.1
			c0.4,0,0.7,0,0.9,0.1c0.3,0.1,0.5,0.1,0.7,0.2c0.2,0.1,0.3,0.2,0.4,0.4c0.1,0.1,0.1,0.3,0.1,0.4c0,0.2-0.1,0.4-0.3,0.5
			c-0.2,0.1-0.4,0.2-0.7,0.2c0-0.2,0-0.3-0.1-0.5s-0.1-0.3-0.2-0.4c-0.1-0.1-0.2-0.2-0.4-0.3c-0.2-0.1-0.4-0.1-0.6-0.1
			c-0.2,0-0.4,0-0.6,0.1c-0.2,0.1-0.3,0.1-0.5,0.2c-0.1,0.1-0.2,0.2-0.3,0.4c-0.1,0.1-0.1,0.3-0.1,0.5c0,0.2,0,0.4,0.1,0.5
			c0.1,0.2,0.2,0.3,0.3,0.4c0.1,0.1,0.3,0.2,0.6,0.3c0.2,0.1,0.5,0.2,0.9,0.3c0.3,0.1,0.7,0.2,0.9,0.4c0.3,0.1,0.5,0.3,0.7,0.4
			s0.3,0.3,0.4,0.6c0.1,0.2,0.2,0.4,0.2,0.7c0,0.3-0.1,0.6-0.2,0.8c-0.1,0.2-0.3,0.5-0.6,0.6c-0.3,0.2-0.6,0.3-0.9,0.4
			C21.1,90,20.7,90,20.3,90z"/>
		<path class="st0" d="M30.5,89.9v-0.4h0.2c0.1,0,0.3,0,0.4,0c0.1,0,0.2,0,0.3-0.1c0.1-0.1,0.2-0.1,0.2-0.2c0.1-0.1,0.1-0.2,0.1-0.4
			v-2.3h-3.8v2.3c0,0.2,0,0.3,0.1,0.4c0.1,0.1,0.1,0.2,0.2,0.2c0.1,0.1,0.2,0.1,0.3,0.1c0.1,0,0.2,0,0.4,0h0.2v0.4h-3.4v-0.4h0.2
			c0.1,0,0.3,0,0.4,0c0.1,0,0.2,0,0.3-0.1c0.1-0.1,0.2-0.1,0.2-0.2c0-0.1,0.1-0.2,0.1-0.4v-4.9c0-0.1,0-0.3-0.1-0.4
			c-0.1-0.1-0.1-0.2-0.2-0.2c-0.1,0-0.2-0.1-0.3-0.1c-0.1,0-0.2,0-0.4,0h-0.2v-0.4h3.4v0.4h-0.2c-0.1,0-0.3,0-0.4,0
			c-0.1,0-0.2,0.1-0.3,0.1c-0.1,0.1-0.2,0.1-0.2,0.2c-0.1,0.1-0.1,0.2-0.1,0.4v2h3.8v-2c0-0.2,0-0.3-0.1-0.4
			c-0.1-0.1-0.1-0.2-0.2-0.2c-0.1-0.1-0.2-0.1-0.3-0.1c-0.1,0-0.2,0-0.4,0h-0.2v-0.4h3.4v0.4h-0.2c-0.1,0-0.3,0-0.4,0
			c-0.1,0-0.2,0.1-0.3,0.1c-0.1,0.1-0.2,0.1-0.2,0.2c-0.1,0.1-0.1,0.2-0.1,0.4v4.9c0,0.1,0,0.3,0.1,0.4c0.1,0.1,0.1,0.2,0.2,0.2
			c0.1,0,0.2,0.1,0.3,0.1s0.2,0,0.4,0h0.2v0.4H30.5z"/>
		<path class="st0" d="M36,89.9v-0.4h0.2c0.1,0,0.3,0,0.4,0c0.1,0,0.2,0,0.3-0.1c0.1-0.1,0.2-0.1,0.2-0.2c0-0.1,0.1-0.2,0.1-0.4
			v-4.9c0-0.2,0-0.3-0.1-0.4c0-0.1-0.1-0.2-0.2-0.2c-0.1-0.1-0.2-0.1-0.3-0.1c-0.1,0-0.2,0-0.4,0H36v-0.4h3.4v0.4h-0.2
			c-0.1,0-0.3,0-0.4,0c-0.1,0-0.2,0.1-0.3,0.1c-0.1,0.1-0.2,0.1-0.2,0.2c-0.1,0.1-0.1,0.2-0.1,0.4v4.9c0,0.2,0,0.3,0.1,0.4
			c0.1,0.1,0.1,0.2,0.2,0.2c0.1,0.1,0.2,0.1,0.3,0.1c0.1,0,0.2,0,0.4,0h0.2v0.4H36z"/>
		<path class="st0" d="M43.8,83.3v2.9h2.9v0.5h-2.9v2.1c0,0.2,0,0.3,0.1,0.4c0.1,0.1,0.1,0.2,0.2,0.2c0.1,0.1,0.2,0.1,0.3,0.1
			c0.1,0,0.2,0,0.4,0h0.4v0.4h-3.7v-0.4h0.2c0.1,0,0.3,0,0.4,0c0.1,0,0.2,0,0.3-0.1c0.1,0,0.2-0.1,0.2-0.2c0.1-0.1,0.1-0.2,0.1-0.4
			v-4.9c0-0.1,0-0.3-0.1-0.4c-0.1-0.1-0.1-0.2-0.2-0.2c-0.1,0-0.2-0.1-0.3-0.1c-0.1,0-0.2,0-0.4,0h-0.2v-0.4h6l0.1,1.7h-0.6
			l-0.1-0.4c0-0.1,0-0.2-0.1-0.3c0-0.1-0.1-0.2-0.2-0.3c-0.1-0.1-0.2-0.1-0.3-0.2c-0.1,0-0.3-0.1-0.5-0.1H43.8z"/>
		<path class="st0" d="M50.8,87.5l-0.5,1c0,0.1-0.1,0.2-0.1,0.2c0,0.1,0,0.1,0,0.2c0,0.2,0.1,0.3,0.2,0.4c0.1,0.1,0.3,0.1,0.6,0.1
			h0.3v0.4h-2.9v-0.4h0.2c0.1,0,0.2,0,0.3,0c0.1,0,0.2-0.1,0.2-0.1c0.1-0.1,0.1-0.1,0.2-0.2c0.1-0.1,0.1-0.2,0.2-0.4l2.6-5.9H53
			l2.7,6.2c0,0.1,0.1,0.2,0.1,0.3c0,0.1,0.1,0.1,0.2,0.2c0.1,0,0.1,0.1,0.2,0.1c0.1,0,0.2,0,0.3,0h0.2v0.4h-3.3v-0.4h0.3
			c0.5,0,0.7-0.2,0.7-0.5c0-0.1,0-0.1,0-0.2c0-0.1,0-0.1-0.1-0.2l-0.5-1.1H50.8z M52.9,85.3c-0.1-0.3-0.2-0.6-0.3-0.8
			c-0.1-0.3-0.2-0.5-0.3-0.7c0,0.1-0.1,0.2-0.1,0.3c0,0.1-0.1,0.2-0.1,0.3c0,0.1-0.1,0.2-0.1,0.4c-0.1,0.1-0.1,0.3-0.2,0.4L51,87
			h2.7L52.9,85.3z"/>
		<path class="st0" d="M64.4,88.7c0.2,0.3,0.4,0.5,0.6,0.6c0.2,0.1,0.4,0.2,0.7,0.2h0v0.4h-0.2c-0.4,0-0.7,0-0.9,0
			c-0.2,0-0.4-0.1-0.6-0.1c-0.2-0.1-0.3-0.2-0.4-0.3c-0.1-0.1-0.2-0.3-0.4-0.5l-1.6-2.2h-1v2.1c0,0.1,0,0.3,0.1,0.4
			c0.1,0.1,0.1,0.2,0.2,0.2c0.1,0,0.2,0.1,0.3,0.1s0.2,0,0.4,0h0.2v0.4h-3.4v-0.4h0.2c0.1,0,0.3,0,0.4,0c0.1,0,0.2,0,0.3-0.1
			c0.1,0,0.2-0.1,0.2-0.2s0.1-0.2,0.1-0.4v-4.9c0-0.1,0-0.3-0.1-0.4c-0.1-0.1-0.1-0.2-0.2-0.2c-0.1,0-0.2-0.1-0.3-0.1
			c-0.1,0-0.2,0-0.4,0h-0.2v-0.4h3.2c1,0,1.8,0.2,2.3,0.5c0.5,0.3,0.8,0.8,0.8,1.4c0,0.3-0.1,0.5-0.2,0.7c-0.1,0.2-0.2,0.4-0.4,0.5
			c-0.2,0.1-0.4,0.3-0.6,0.4c-0.2,0.1-0.4,0.2-0.6,0.2L64.4,88.7z M60.6,86.3h0.8c0.3,0,0.6,0,0.9-0.1c0.2-0.1,0.4-0.2,0.6-0.3
			c0.1-0.1,0.2-0.3,0.3-0.5c0.1-0.2,0.1-0.4,0.1-0.7c0-0.3,0-0.5-0.1-0.7c-0.1-0.2-0.2-0.3-0.3-0.5c-0.1-0.1-0.3-0.2-0.6-0.3
			c-0.2-0.1-0.5-0.1-0.9-0.1h-0.8V86.3z"/>
		<path class="st0" d="M71,90c-0.5,0-0.9,0-1.3-0.1c-0.4-0.1-0.7-0.2-0.9-0.4c-0.3-0.2-0.5-0.4-0.6-0.7c-0.1-0.3-0.2-0.6-0.2-1v-3.9
			c0-0.1,0-0.3-0.1-0.4c-0.1-0.1-0.1-0.2-0.2-0.2c-0.1,0-0.2-0.1-0.3-0.1s-0.2,0-0.4,0h-0.2v-0.4h3.4v0.4h-0.2c-0.1,0-0.3,0-0.4,0
			c-0.1,0-0.2,0.1-0.3,0.1c-0.1,0.1-0.2,0.1-0.2,0.2c-0.1,0.1-0.1,0.2-0.1,0.4v3.9c0,0.3,0,0.5,0.1,0.7c0.1,0.2,0.2,0.4,0.4,0.5
			c0.2,0.1,0.4,0.2,0.6,0.3c0.2,0.1,0.5,0.1,0.8,0.1c0.3,0,0.6,0,0.9-0.1s0.5-0.2,0.6-0.3c0.2-0.1,0.3-0.3,0.4-0.5
			c0.1-0.2,0.1-0.4,0.1-0.6v-4c0-0.1,0-0.3-0.1-0.4c-0.1-0.1-0.1-0.2-0.2-0.2c-0.1,0-0.2-0.1-0.3-0.1c-0.1,0-0.2,0-0.4,0H72v-0.4h3
			v0.4h-0.2c-0.1,0-0.3,0-0.4,0c-0.1,0-0.2,0.1-0.3,0.1c-0.1,0.1-0.2,0.1-0.2,0.2c-0.1,0.1-0.1,0.2-0.1,0.4v4c0,0.3-0.1,0.6-0.2,0.9
			c-0.1,0.3-0.3,0.5-0.6,0.7c-0.2,0.2-0.5,0.3-0.9,0.4C71.9,90,71.4,90,71,90z"/>
	</g>
	<g>
		<path class="st0" d="M20.4,99.1c0,0,0.1,0.1,0.2,0.1h0.1v0.1h-1.4v-0.1h0.1c0.1,0,0.2,0,0.2-0.1c0,0,0.1-0.1,0.1-0.3v-2.1
			c0-0.3-0.1-0.5-0.2-0.7c-0.1-0.2-0.4-0.2-0.6-0.2h0c-0.3,0-0.6,0.1-0.8,0.2c-0.2,0.2-0.3,0.4-0.4,0.6v2.1c0,0.1,0,0.2,0,0.2
			c0,0,0.1,0.1,0.2,0.1h0.1v0.1h-1.4v-0.1h0.1c0.1,0,0.2,0,0.2-0.1c0,0,0.1-0.1,0.1-0.3v-2.1c0-0.3-0.1-0.5-0.2-0.7
			c-0.1-0.2-0.3-0.2-0.6-0.2h0c-0.3,0-0.6,0.1-0.8,0.2c-0.2,0.2-0.3,0.4-0.4,0.6v2.1c0,0.1,0,0.2,0,0.2c0,0,0.1,0.1,0.2,0.1h0.1v0.1
			H14v-0.1h0.1c0.1,0,0.2,0,0.2-0.1c0,0,0.1-0.1,0.1-0.3v-2.8c0-0.1,0-0.1,0-0.2c0,0,0-0.1-0.1-0.1l-0.1,0l-0.1,0v0l0.8-0.2l0.2,0
			v0.7c0.2-0.2,0.4-0.4,0.6-0.5c0.2-0.1,0.5-0.2,0.8-0.2c0.3,0,0.5,0.1,0.7,0.2c0.2,0.1,0.3,0.3,0.4,0.5c0.1-0.1,0.1-0.2,0.2-0.3
			c0.1-0.1,0.2-0.2,0.3-0.2c0.1-0.1,0.3-0.1,0.4-0.2c0.2,0,0.3-0.1,0.5-0.1c0.4,0,0.7,0.1,0.9,0.3c0.2,0.2,0.3,0.5,0.3,1v2.1
			C20.3,98.9,20.3,99,20.4,99.1z"/>
		<path class="st0" d="M25.1,99.1c-0.2,0.1-0.5,0.1-0.7,0.1c-0.2,0-0.4,0-0.5-0.1c-0.2,0-0.3-0.1-0.4-0.2c-0.1-0.1-0.2-0.2-0.2-0.3
			c-0.1-0.1-0.1-0.2-0.1-0.4c0-0.2,0-0.4,0.1-0.5c0.1-0.1,0.2-0.3,0.3-0.4c0.1-0.1,0.3-0.2,0.5-0.2s0.4-0.1,0.6-0.1
			c0.2,0,0.4-0.1,0.6-0.1c0.2,0,0.4-0.1,0.5-0.1v-0.4c0-0.3-0.1-0.5-0.2-0.6c-0.2-0.1-0.4-0.2-0.6-0.2c-0.2,0-0.4,0-0.6,0.1
			c-0.2,0.1-0.3,0.2-0.4,0.3l0,0.2c0,0.1-0.1,0.1-0.1,0.1c0,0-0.1,0-0.1,0c-0.1,0-0.2-0.1-0.2-0.3c0-0.2,0.2-0.3,0.5-0.4
			c0.3-0.1,0.6-0.2,1-0.2c1,0,1.4,0.4,1.4,1.2v1.9c0,0.1,0,0.3,0,0.4c0,0.1,0.1,0.1,0.1,0.1c0,0,0.1,0,0.1,0c0.1,0,0.1,0,0.1-0.1
			l0,0.1c-0.1,0.1-0.2,0.1-0.3,0.1c-0.1,0-0.2,0.1-0.4,0.1c-0.1,0-0.2-0.1-0.2-0.2c-0.1-0.1-0.1-0.3-0.1-0.4
			C25.6,98.8,25.4,99,25.1,99.1z M25.8,97.1l-0.6,0.1c-0.2,0-0.4,0.1-0.6,0.1c-0.2,0.1-0.3,0.1-0.4,0.2S24,97.7,24,97.8
			c-0.1,0.1-0.1,0.2-0.1,0.3c0,0.2,0.1,0.4,0.2,0.5c0.1,0.1,0.3,0.2,0.6,0.2c0.2,0,0.3,0,0.4-0.1c0.1,0,0.3-0.1,0.4-0.2
			c0.1-0.1,0.2-0.2,0.2-0.3c0.1-0.1,0.1-0.2,0.1-0.3V97.1z"/>
		<path class="st0" d="M29.6,93.8l0.9-0.2l0.2,0v5.2c0,0.1,0,0.2,0,0.2c0,0,0.1,0.1,0.2,0.1H31v0.1h-1.3v-0.1h0.1
			c0.1,0,0.2,0,0.2-0.1c0,0,0.1-0.1,0.1-0.3v-4.7c0-0.1,0-0.1,0-0.2c0,0-0.1-0.1-0.1-0.1l-0.1,0L29.6,93.8L29.6,93.8z"/>
		<path class="st0" d="M36.3,99.1c-0.2,0.1-0.4,0.1-0.7,0.1c-0.6,0-1-0.2-1.4-0.5c-0.3-0.3-0.5-0.8-0.5-1.4c0-0.6,0.2-1.1,0.5-1.4
			c0.4-0.4,0.8-0.6,1.4-0.6c0.2,0,0.4,0,0.6,0.1c0.2,0.1,0.4,0.2,0.6,0.4v-1.8c0-0.1,0-0.1,0-0.2c0,0,0-0.1-0.1-0.1l-0.1,0l-0.2,0v0
			l0.9-0.2l0.2,0v5.1c0,0.1,0,0.1,0.1,0.2c0,0,0.1,0,0.3,0V99l-1,0.2v-0.6C36.7,98.9,36.5,99,36.3,99.1z M36.9,96.9
			c0-0.2,0-0.3-0.1-0.5c-0.1-0.2-0.1-0.3-0.2-0.4c-0.1-0.1-0.2-0.2-0.4-0.3c-0.1-0.1-0.3-0.1-0.5-0.1c-0.4,0-0.7,0.1-0.9,0.4
			c-0.2,0.3-0.3,0.6-0.3,1.1c0,0.5,0.1,0.9,0.4,1.2c0.2,0.3,0.6,0.4,1,0.4c0.1,0,0.3,0,0.4-0.1c0.1-0.1,0.2-0.1,0.3-0.2
			c0.1-0.1,0.2-0.2,0.2-0.3c0.1-0.1,0.1-0.3,0.1-0.4V96.9z"/>
		<path class="st0" d="M41.6,99.1c0,0,0.1,0.1,0.2,0.1h0.1v0.1h-1.3v-0.1h0.1c0.1,0,0.2,0,0.2-0.1c0,0,0.1-0.1,0.1-0.3V96
			c0-0.1,0-0.1,0-0.2c0,0-0.1-0.1-0.1-0.1l-0.1,0l-0.2,0v0l0.9-0.3l0.2,0v3.4C41.5,98.9,41.6,99,41.6,99.1z M41,93.8
			c0.1-0.1,0.2-0.1,0.3-0.1c0.1,0,0.2,0,0.3,0.1c0.1,0.1,0.1,0.2,0.1,0.2s0,0.2-0.1,0.2c-0.1,0.1-0.2,0.1-0.3,0.1
			c-0.1,0-0.2,0-0.3-0.1c-0.1-0.1-0.1-0.2-0.1-0.2S40.9,93.9,41,93.8z"/>
		<path class="st0" d="M46.7,99.2c-0.1,0-0.2,0.1-0.2,0.1c-0.1,0-0.1,0-0.2-0.1l-1.5-3.4c0-0.1-0.1-0.2-0.2-0.2c-0.1,0-0.1,0-0.2,0
			v-0.1h1.3v0.1c-0.1,0-0.2,0-0.2,0.1l0,0c0,0,0,0.1,0,0.1l1.1,2.7l1.1-2.6c0-0.1,0.1-0.1,0.1-0.2c0,0,0-0.1,0-0.1
			c-0.1,0-0.1-0.1-0.2-0.1v-0.1h1v0.1c-0.1,0-0.1,0-0.2,0.1c0,0-0.1,0.1-0.2,0.3L46.7,99.2z"/>
		<path class="st0" d="M54.1,98.6c-0.1,0.1-0.3,0.2-0.4,0.3c-0.2,0.1-0.3,0.2-0.5,0.2c-0.2,0.1-0.4,0.1-0.6,0.1
			c-0.6,0-1-0.2-1.4-0.5c-0.3-0.3-0.5-0.8-0.5-1.4c0-0.6,0.2-1.1,0.5-1.5c0.4-0.4,0.8-0.6,1.4-0.6c0.5,0,0.9,0.2,1.2,0.5
			c0.3,0.3,0.4,0.7,0.5,1.2l0,0.1h-3.1c0,0.5,0.2,0.9,0.4,1.2c0.3,0.3,0.7,0.5,1.1,0.5c0.3,0,0.6-0.1,0.9-0.2
			c0.3-0.2,0.4-0.3,0.5-0.4l0.1,0.1C54.4,98.4,54.2,98.5,54.1,98.6z M53.6,96.8c0-0.3-0.1-0.6-0.3-0.8c-0.2-0.2-0.4-0.3-0.7-0.3
			c-0.4,0-0.7,0.1-0.9,0.4c-0.2,0.2-0.3,0.4-0.3,0.7H53.6z"/>
		<path class="st0" d="M59.7,99c-0.3,0.2-0.6,0.3-1.1,0.3c-0.2,0-0.4,0-0.7-0.1c-0.2,0-0.4-0.1-0.5-0.1c0,0-0.1,0-0.1,0h-0.1v-0.9
			l0.1,0c0.1,0.2,0.2,0.4,0.4,0.5c0.2,0.1,0.5,0.2,0.8,0.2c0.2,0,0.5-0.1,0.6-0.2c0.2-0.1,0.3-0.3,0.3-0.5c0-0.1,0-0.2-0.1-0.3
			s-0.1-0.2-0.2-0.2c-0.1-0.1-0.2-0.1-0.3-0.2c-0.1-0.1-0.3-0.1-0.4-0.2c-0.2-0.1-0.5-0.2-0.7-0.4c-0.3-0.2-0.4-0.4-0.4-0.7
			c0-0.2,0-0.3,0.1-0.4c0.1-0.1,0.2-0.2,0.3-0.3s0.3-0.2,0.4-0.2c0.2,0,0.3-0.1,0.5-0.1c0.2,0,0.4,0,0.6,0.1c0.1,0,0.2,0,0.3,0.1
			c0.1,0,0.1,0,0.1,0l0.1-0.2h0l0,1l-0.1,0c-0.1-0.2-0.2-0.3-0.4-0.4c-0.2-0.1-0.4-0.2-0.6-0.2c-0.3,0-0.5,0.1-0.6,0.2
			c-0.1,0.1-0.2,0.2-0.2,0.4c0,0.2,0.1,0.3,0.2,0.4c0.2,0.1,0.4,0.2,0.7,0.4c0.2,0.1,0.4,0.2,0.5,0.2c0.2,0.1,0.3,0.2,0.4,0.3
			c0.1,0.1,0.2,0.2,0.2,0.3c0.1,0.1,0.1,0.2,0.1,0.4C60.1,98.5,60,98.8,59.7,99z"/>
	</g>
</g>
</svg>
